<svg width="601" height="175" viewBox="0 0 601 175" fill="none" xmlns="http://www.w3.org/2000/svg">
<path fill-rule="evenodd" clip-rule="evenodd" d="M109.9 115.9L83.1998 64.6L61.5998 115.9H109.9ZM0.299805 168.4V171.9L32.9998 172.9L45.7998 144.6L125.8 144.9L138 173.8L170.1 171.6L84.4998 5.19995L0.299805 168.4Z" fill="#435F74"/>
<path fill-rule="evenodd" clip-rule="evenodd" d="M498.8 33.2C482.6 38.2 473.7 42.1 464.5 57.2C439.4 98.3 474.4 158.1 530.5 141.5C601.3 120.4 568.6 11.4 498.8 33.2Z" fill="white"/>
<path fill-rule="evenodd" clip-rule="evenodd" d="M194.4 158.6C228.4 188.3 272.9 169.6 285.6 137.7C293.7 117.4 291.1 27 289.5 1L275.3 1.5H261.5V1.89999C261.2 11.9 261.3 21.9 261.5 31.8V113.6C259.9 129.4 251 142.6 232.4 143.2C220.2 143 213.5 140 210.1 139.4C205.4 138.6 204 145.8 194.4 158.6Z" fill="#435F74"/>
<path fill-rule="evenodd" clip-rule="evenodd" d="M62 115.1L109.4 115.4C103.2 99.3 94.4 78.6 82.4 68.6L62 115.1Z" fill="white"/>
<path fill-rule="evenodd" clip-rule="evenodd" d="M204.9 159.2C201.4 158.9 197.8 158.7 194.3 158.4C198.6 151.2 202.8 143.9 207.1 136.7C213.7 140.8 216.9 141.8 224.6 142.9C223.6 146.7 222.6 150.4 221.6 154.2C216.1 155.8 210.5 157.5 204.9 159.2Z" fill="#435F74"/>
<path fill-rule="evenodd" clip-rule="evenodd" d="M105 56.7L109.9 115.9L83.2002 64.5999L105 56.7Z" fill="#435F74"/>
<path fill-rule="evenodd" clip-rule="evenodd" d="M513.5 0.599976C561.4 0.599976 600.3 39.4 600.3 87.3C600.3 135.2 561.4 174 513.5 174C465.6 174 426.8 135.2 426.8 87.3C426.8 39.4 465.6 0.599976 513.5 0.599976ZM513.5 30.2C545 30.2 570.6 55.8 570.6 87.3C570.6 118.8 545.1 144.4 513.5 144.4C482 144.4 456.4 118.8 456.4 87.3C456.4 55.8 482 30.2 513.5 30.2Z" fill="#435F74"/>
<path d="M377 1H350.1V174.1H377V1Z" fill="#435F74"/>
</svg>
