<svg width="84" height="59" viewBox="0 0 84 59" fill="none" xmlns="http://www.w3.org/2000/svg">
<path d="M17.6053 5.7152C19.2622 3.72685 21.0612 1.59648 23.6176 0.791672C26.4818 0.0342063 28.9199 2.28293 30.7189 4.20027C35.4294 9.59721 38.8616 15.9647 42.0572 22.3558C43.7852 18.4738 45.9392 14.7811 48.1643 11.1832C50.2946 7.91658 52.496 4.60267 55.5732 2.11724C56.9935 1.02838 58.9582 -0.0131353 60.7335 0.910026C63.2426 2.23559 65.1362 4.43698 66.9115 6.59102C70.6752 11.4435 73.6341 16.8641 76.3089 22.3794C79.6464 29.4807 82.5343 36.8896 83.7415 44.6773C84.0965 48.2753 84.4279 52.323 82.2502 55.4712C80.5696 57.933 77.374 58.7851 74.5335 58.2881C72.0718 57.4122 69.9177 55.8026 68.3081 53.7669C64.4734 49.0328 62.2011 43.3044 60.0944 37.6471C59.7866 36.6529 59.4079 35.6824 59.0765 34.7119C58.8635 35.7061 58.5794 36.7003 58.248 37.6708C56.094 43.3991 53.7979 49.2458 49.8449 54.0036C48.2589 55.9447 46.1759 57.4359 43.8088 58.2881C40.4002 58.9982 37.11 57.2229 34.9086 54.7138C30.6005 50.027 28.2098 43.9672 26.0084 38.0732C25.5823 36.866 25.1562 35.6588 24.8485 34.4042C24.4935 35.6588 24.0674 36.9133 23.6176 38.1205C21.6293 43.5411 19.3569 49.0091 15.7589 53.5776C13.7943 55.921 11.2378 58.217 8.04225 58.3827C5.0834 58.6431 2.21923 56.7258 1.08303 54.0273C-0.526585 50.2873 -0.053169 46.0739 0.656955 42.1682C2.19556 34.7119 5.03606 27.587 8.39731 20.7935C10.9774 15.5149 13.9126 10.3547 17.6053 5.7152ZM19.2859 7.37216C15.6406 12.0116 12.7291 17.2192 10.1253 22.4978C6.88238 29.3387 3.9472 36.4636 2.69264 43.9672C2.2429 46.0503 2.2429 48.2043 2.45594 50.311C2.71632 52.2993 3.49745 54.4297 5.3201 55.4476C7.07174 56.4654 9.32047 56.063 10.9064 54.9268C13.7469 52.9385 15.6406 49.9086 17.2739 46.9024C20.7771 40.2036 23.0732 32.9366 24.8012 25.6223C26.6475 33.126 28.9672 40.606 32.6599 47.4468C34.1275 49.9796 35.6661 52.6071 38.0568 54.3587C39.264 55.4476 40.85 56.205 42.5069 56.0157C44.3533 55.8263 45.8919 54.6428 47.1938 53.3882C49.3951 51.1158 51.0048 48.3227 52.425 45.5295C55.4549 39.3277 57.5379 32.6999 59.1712 26.0248C61.2069 34.1202 63.7397 42.2393 68.0951 49.4352C69.7284 51.9443 71.6457 54.5481 74.5099 55.7316C76.5219 56.5601 79.0783 55.8263 80.2382 53.9563C81.6348 51.7076 81.7531 48.9144 81.5401 46.358C81.2561 42.2156 80.0488 38.1915 78.7233 34.2622C76.0721 26.6875 72.5925 19.3969 68.3555 12.6034C66.3908 9.57354 64.3551 6.52001 61.6093 4.10558C60.6388 3.25344 59.1949 2.42496 57.964 3.27711C55.5969 4.72103 53.9636 7.01709 52.3067 9.19481C48.2826 14.9231 44.9687 21.1722 42.2466 27.6107C42.1755 27.7054 41.9862 27.8947 41.9152 27.9894C41.6785 27.2556 41.4418 26.5455 41.134 25.8354C38.3409 19.7993 35.24 13.858 31.287 8.50835C29.9377 6.73304 28.5412 4.93406 26.7185 3.63217C25.9374 3.08774 24.8959 2.59065 23.9727 3.06407C22.008 3.96356 20.6351 5.73887 19.2859 7.37216Z" fill="#FEFEFE"/>
<path d="M19.2859 7.37225C20.6351 5.73896 22.0317 3.98732 23.9964 3.08783C24.9195 2.61441 25.961 3.08783 26.7422 3.65593C28.5648 4.95782 29.9614 6.78048 31.3106 8.53212C35.24 13.9054 38.3645 19.8231 41.1577 25.8591C41.4891 26.5456 41.7258 27.2794 41.9388 28.0132C38.2935 21.8351 34.9796 15.4203 30.4348 9.83401C29.1093 8.27174 27.7127 6.61478 25.7953 5.7863C24.7065 5.31289 23.594 5.92833 22.6945 6.5201C19.4279 9.26591 17.0135 12.8402 14.7411 16.3908C9.39148 24.9123 5.36744 34.2623 2.71631 43.9673C3.97086 36.4637 6.88237 29.3388 10.1489 22.4979C12.7291 17.2193 15.6406 12.0117 19.2859 7.37225Z" fill="#9E242E"/>
<path d="M57.964 3.25344C59.1949 2.40129 60.6388 3.22977 61.6093 4.08192C64.3551 6.47267 66.3908 9.52621 68.3555 12.5797C72.5926 19.3969 76.0958 26.6639 78.7233 34.2385C80.0489 38.1679 81.2561 42.1682 81.5401 46.3343C81.0904 43.4465 80.3329 40.606 79.3624 37.8602C76.8533 30.3092 73.3737 23.0659 69.1603 16.3197C67.314 13.4319 65.3493 10.5677 62.9822 8.10596C62.0354 7.15913 61.0175 6.16495 59.7156 5.73888C58.6978 5.43116 57.7746 6.14128 56.9462 6.63837C54.7448 8.36634 53.0405 10.5914 51.4072 12.8401C48.5193 16.9352 45.9392 21.2433 43.6195 25.6697C43.2408 26.3798 42.7673 27.0426 42.2466 27.6344C44.9687 21.1722 48.2826 14.9468 52.3067 9.21848C53.9636 7.0171 55.6206 4.69736 57.964 3.25344Z" fill="#9E242E"/>
<path d="M22.6944 6.52C23.5939 5.92823 24.7064 5.31279 25.7953 5.78621C27.7126 6.61468 29.1092 8.27164 30.4348 9.83391C34.9796 15.4202 38.2935 21.835 41.9151 28.0131C39.6427 34.4752 36.9442 40.961 36.7785 47.8966C36.6602 50.1216 37.252 52.2993 38.0804 54.3587C35.6897 52.6071 34.1274 49.9796 32.6835 47.4468C29.0145 40.606 26.6711 33.1497 24.8248 25.6223C23.4992 19.3733 22.2683 12.9821 22.6944 6.52Z" fill="#FF912E"/>
<path d="M56.9698 6.61462C57.7983 6.11753 58.7215 5.40741 59.7393 5.71513C61.0412 6.1412 62.059 7.13537 63.0059 8.08221C65.373 10.5676 67.3376 13.4081 69.184 16.296C73.3974 23.0422 76.877 30.2854 79.3861 37.8364C80.3803 40.5822 81.114 43.4227 81.5638 46.3106C81.7768 48.867 81.6585 51.6602 80.2619 53.9089C79.102 55.8026 76.5693 56.5127 74.5336 55.6842C71.6694 54.5243 69.7521 51.8969 68.1188 49.3878C63.7633 42.2155 61.2306 34.0964 59.1949 25.9773C57.822 19.6572 56.5437 13.1714 56.9698 6.61462Z" fill="#F41CB2"/>
<path d="M14.7411 16.3907C17.0135 12.8401 19.4279 9.26583 22.6945 6.52002C22.2684 12.9585 23.4993 19.3733 24.8485 25.6224C23.1205 32.9603 20.8008 40.2036 17.3212 46.9024C15.6879 49.9086 13.7942 52.9385 10.9537 54.9268C9.3678 56.063 7.11908 56.4654 5.36744 55.4476C3.54478 54.4297 2.76365 52.2757 2.50327 50.311C2.26656 48.2043 2.29023 46.0503 2.73998 43.9672C5.34377 34.2622 9.39147 24.9122 14.7411 16.3907Z" fill="#F41CB2"/>
<path d="M51.4308 12.8165C53.0641 10.5678 54.7684 8.34272 56.9698 6.61475C56.5437 13.1479 57.8219 19.6574 59.2185 26.0011C57.5852 32.7 55.4785 39.3041 52.4723 45.5059C51.0521 48.3227 49.4425 51.0922 47.2411 53.3646C45.9629 54.6191 44.4006 55.8027 42.5543 55.9921C40.8973 56.1814 39.3114 55.424 38.1041 54.3351C37.2757 52.2757 36.6839 50.098 36.8023 47.873C36.9679 40.9374 39.6664 34.4279 41.9388 27.9895C42.0098 27.8948 42.1992 27.7054 42.2702 27.6108C42.791 26.9953 43.2644 26.3562 43.6431 25.6461C45.9865 21.2196 48.543 16.9115 51.4308 12.8165Z" fill="#F25511"/>
</svg>
