<svg width="31" height="29" viewBox="0 0 31 29" fill="none" xmlns="http://www.w3.org/2000/svg">
<path d="M6.79688 14.2422C6.79688 19.2344 10.9805 24.1445 17.5898 28.3633C17.8359 28.5156 18.1875 28.6797 18.4336 28.6797C18.6797 28.6797 19.0312 28.5156 19.2891 28.3633C25.8867 24.1445 30.0703 19.2344 30.0703 14.2422C30.0703 10.0938 27.2227 7.16406 23.4258 7.16406C21.2578 7.16406 19.5 8.19531 18.4336 9.77734C17.3906 8.20703 15.6094 7.16406 13.4414 7.16406C9.64453 7.16406 6.79688 10.0938 6.79688 14.2422ZM8.68359 14.2422C8.68359 11.125 10.6992 9.05078 13.418 9.05078C15.6211 9.05078 16.8867 10.4219 17.6367 11.5938C17.9531 12.0625 18.1523 12.1914 18.4336 12.1914C18.7148 12.1914 18.8906 12.0508 19.2305 11.5938C20.0391 10.4453 21.2578 9.05078 23.4492 9.05078C26.168 9.05078 28.1836 11.125 28.1836 14.2422C28.1836 18.6016 23.5781 23.3008 18.6797 26.5586C18.5625 26.6406 18.4805 26.6992 18.4336 26.6992C18.3867 26.6992 18.3047 26.6406 18.1992 26.5586C13.2891 23.3008 8.68359 18.6016 8.68359 14.2422Z" fill="#212121"/>
</svg>
