<svg width="24" height="25" viewBox="0 0 24 25" fill="none" xmlns="http://www.w3.org/2000/svg">
<path d="M11.29 12.4999L14.83 8.95995C15.0163 8.77259 15.1208 8.51913 15.1208 8.25495C15.1208 7.99076 15.0163 7.73731 14.83 7.54995C14.737 7.45622 14.6264 7.38183 14.5046 7.33106C14.3827 7.28029 14.252 7.25415 14.12 7.25415C13.988 7.25415 13.8573 7.28029 13.7354 7.33106C13.6136 7.38183 13.503 7.45622 13.41 7.54995L9.17 11.7899C9.07628 11.8829 9.00188 11.9935 8.95111 12.1154C8.90035 12.2372 8.87421 12.3679 8.87421 12.4999C8.87421 12.632 8.90035 12.7627 8.95111 12.8845C9.00188 13.0064 9.07628 13.117 9.17 13.2099L13.41 17.4999C13.5034 17.5926 13.6143 17.666 13.7361 17.7157C13.8579 17.7655 13.9884 17.7907 14.12 17.7899C14.2516 17.7907 14.3821 17.7655 14.5039 17.7157C14.6257 17.666 14.7366 17.5926 14.83 17.4999C15.0163 17.3126 15.1208 17.0591 15.1208 16.7949C15.1208 16.5308 15.0163 16.2773 14.83 16.0899L11.29 12.4999Z" fill="#828282"/>
</svg>
